<?xml version="1.0" encoding="utf-8"?>
<!-- Generator: Adobe Illustrator 16.0.0, SVG Export Plug-In . SVG Version: 6.00 Build 0)  -->
<!DOCTYPE svg PUBLIC "-//W3C//DTD SVG 1.1//EN" "http://www.w3.org/Graphics/SVG/1.1/DTD/svg11.dtd">
<svg version="1.1" xmlns="http://www.w3.org/2000/svg" xmlns:xlink="http://www.w3.org/1999/xlink" x="0px" y="0px"
	 width="347.467px" height="59.5px" viewBox="1.2 1.2 347.467 59.5" enable-background="new 1.2 1.2 347.467 59.5"
	 xml:space="preserve">
<g id="Layer_2">
	<path fill="#03729e" d="M97,15H113.9c7.9,0,12.5,4,12.5,9.8c0,7.801-6.6,11-14.899,11h-6.4l-2,9.801H90.5L97,15z M106.7,28.3h3.1
		c2.4,0,3.9-1.3,3.9-3.399c0-1.4-0.7-2.601-3-2.601H108L106.7,28.3z"/>
	<polygon fill="#03729e" points="135.449,15 148.249,15 143.549,37.6 158.549,37.6 155.549,45.6 128.949,45.6 	"/>
	<path fill="#03729e" d="M9.1,4.5H40l10.7,12.8l15-12.8H96.4L64,32.9l23.8,27.8H57.1L46.2,48.1L31.9,60.7H1.2L32.9,32.9L9.1,4.5z"/>
	<path fill="#03729e" d="M207.231,45.6l6.4-30.601h14.6c1.601,6,3,12.3,4,16.7h0.3c0.101-2.3,1.2-7.8,2.2-12.9l0.8-3.8h11.301
		l-6.5,30.601h-13.9c-1.1-4.7-3.2-14-4.2-18.9h-0.2c-0.3,3.6-1.5,9.2-2.6,14.5l-0.9,4.4H207.231z"/>
	<polygon fill="#03729e" points="279.482,34.1 264.982,34.1 264.281,37.4 280.982,37.4 277.881,45.5 250.181,45.5 256.681,14.9
		284.281,14.9 282.581,22.9 267.381,22.9 266.681,26.1 281.181,26.1 	"/>
	<polygon fill="#03729e" points="298.115,9.4 314.514,9.4 306.714,45.5 293.314,45.5 299.314,18.2 294.615,18.2 	"/>
	<path fill="#03729e" d="M195.33,15.1h-16.9l-16.599,30.6h13.099l2.299-4.6h9.601l0.399,4.6h12.7L195.33,15.1z M181.031,33.1
		c1.3-2.9,3.1-7.2,4.1-10h0.3c0.2,2.899,0.4,7.5,0.7,10H181.031z"/>
	<polygon fill="#03729e" points="298.213,9.385 314.513,9.385 306.713,45.484 293.314,45.484 299.314,18.184 294.614,18.184 	"/>
	<path fill="#03729e" d="M342.782,45.5l-25.467-0.016l1.669-7.724C333.191,26.74,336.6,22.2,336.6,19.903
		c0-1.901-0.868-2.449-3.418-2.535c-2.584-0.086-5.874,0.679-10.438,2.991l2.126-9.844c4.771-1.791,7.727-1.752,10.578-1.752
		c7.354,0,12.174,2.183,11.907,9.338c-0.314,8.446-6.252,13.071-13.932,19.217h12.457L342.782,45.5z"/>
</g>
<g id="Layer_1">
	<rect x="-40.4" y="-77" display="none" fill="#05283D" width="432" height="216"/>
	<path fill="#0FB5E8" d="M98.3,13.7h16.9c7.899,0,12.5,4,12.5,9.8c0,7.8-6.601,11-14.9,11h-6.4l-2,9.8H91.8L98.3,13.7z M108,27h3.1
		c2.4,0,3.9-1.3,3.9-3.399c0-1.4-0.7-2.601-3-2.601h-2.7L108,27z"/>
	<polygon fill="#0FB5E8" points="136.849,13.7 149.65,13.7 144.849,36.2 159.849,36.2 156.849,44.3 130.349,44.3 	"/>
	<path fill="#0FB5E8" d="M12.9,1.2h30.9L54.6,14L69.5,1.2h30.7L67.8,29.6l23.8,27.8H60.9L49.9,44.8L35.7,57.4H4.9l31.7-27.8
		L12.9,1.2z"/>
	<path fill="#0FB5E8" d="M208.531,44.3l6.5-30.6h14.601c1.6,6,3,12.3,4,16.7h0.3c0.1-2.3,1.2-7.8,2.2-12.9l0.8-3.8h11.3l-6.5,30.6
		h-13.899c-1.101-4.699-3.2-14-4.2-18.899h-0.2c-0.3,3.6-1.5,9.2-2.6,14.5l-0.9,4.399H208.531z"/>
	<polygon fill="#0FB5E8" points="280.781,32.8 266.281,32.8 265.581,36.1 282.281,36.1 279.181,44.2 251.482,44.2 257.982,13.5
		285.581,13.5 283.982,21.6 268.681,21.6 267.982,24.8 282.581,24.8 	"/>
	<polygon fill="#0FB5E8" points="299.514,8.1 315.814,8.1 308.014,44.2 294.615,44.2 300.615,16.9 295.914,16.9 	"/>
	<path fill="#0FB5E8" d="M196.73,13.8H179.83l-16.6,30.601h13.1l2.3-4.601h9.6l0.4,4.601h12.7L196.73,13.8z M182.43,31.8
		c1.3-2.899,3.101-7.199,4.101-10h0.3c0.2,2.9,0.399,7.5,0.7,10H182.43z"/>
	<path fill="#0FB5E8" d="M344.083,44.216L318.616,44.2l1.669-7.724c14.206-11.021,17.615-15.56,17.615-17.858
		c0-1.901-0.868-2.449-3.418-2.535c-2.584-0.086-5.874,0.679-10.438,2.991l2.126-9.844c4.771-1.791,7.727-1.752,10.578-1.752
		c7.354,0,12.174,2.183,11.907,9.338c-0.314,8.446-6.252,13.071-13.932,19.217h12.457L344.083,44.216z"/>
</g>
</svg>
